<svg width="36" height="55" viewBox="0 0 36 55" fill="none" xmlns="http://www.w3.org/2000/svg">
<path d="M30.8348 17.9779V19.9857C29.9073 19.1046 28.9725 18.4692 28.0303 18.0794C27.0628 17.6845 26.0267 17.4858 24.9821 17.4948C22.5327 17.4948 20.4134 18.4463 18.624 20.3493C18.4625 20.5222 18.3077 20.6979 18.1598 20.8791C18.0147 20.6979 17.8627 20.5195 17.7038 20.348C15.9693 18.4733 13.8696 17.5365 11.4047 17.5374C10.3037 17.5301 9.21307 17.7496 8.20032 18.1824C7.15654 18.6442 6.21062 19.3019 5.41363 20.1201V10.0059C5.41363 9.66044 5.55027 9.3291 5.7936 9.08446C6.03694 8.83982 6.36713 8.70184 6.7118 8.70075H27.7729V12.6559L32.6369 8.70075L35.5537 6.32794L32.6547 3.97023L27.7729 0V3.97023H5.40678C4.15489 3.97023 2.95427 4.46862 2.06905 5.35577C1.18383 6.24291 0.686523 7.44614 0.686523 8.70075L0.686523 37.0166H5.40678V35.0089C6.33522 35.8945 7.2696 36.5303 8.2099 36.9164C9.17785 37.3115 10.2144 37.5102 11.2595 37.5011C13.7089 37.5011 15.8278 36.55 17.6162 34.6479C17.7787 34.475 17.9339 34.298 18.0818 34.1168C18.226 34.2998 18.378 34.4773 18.5378 34.6493C20.2678 36.5267 22.3693 37.4654 24.8424 37.4654C25.9438 37.4725 27.0349 37.253 28.0481 36.8204C29.0915 36.3579 30.0373 35.7002 30.8348 34.8826V44.9969C30.8348 45.343 30.6976 45.675 30.4534 45.9197C30.2092 46.1645 29.8779 46.302 29.5325 46.302H8.46735V42.3441L3.60331 46.2992L0.686523 48.6721L3.5855 51.0298L8.46735 55V51.0298H30.8348C32.0865 51.0294 33.2867 50.5309 34.1717 49.6437C35.0566 48.7566 35.5537 47.5536 35.5537 46.2992V17.9779H30.8348ZM14.0722 31.5533C13.6096 32.064 13.0435 32.4699 12.4118 32.7437C11.7801 33.0176 11.0973 33.153 10.4091 33.1411C8.91103 33.1411 7.66854 32.6205 6.68167 31.5793C5.69481 30.5382 5.2 29.1736 5.19727 27.4856C5.19727 25.8388 5.6907 24.5007 6.67757 23.4714C7.66443 22.4422 8.90829 21.9303 10.4091 21.9358C11.8945 21.9358 13.1269 22.4564 14.1065 23.4975C15.086 24.5387 15.5735 25.874 15.569 27.5034C15.5635 29.1448 15.0646 30.4947 14.0722 31.5533ZM29.5627 31.5286C28.5758 32.5523 27.3333 33.0642 25.8352 33.0642C24.3371 33.0642 23.1047 32.5436 22.1379 31.5025C21.1656 30.4613 20.6795 29.126 20.6795 27.4966C20.6795 25.8671 21.1761 24.5172 22.1694 23.4467C22.6323 22.9356 23.1988 22.5295 23.831 22.2557C24.4633 21.9819 25.1466 21.8466 25.8352 21.8589C27.3333 21.8589 28.5758 22.3795 29.5627 23.4207C30.5495 24.4618 31.043 25.8264 31.043 27.5144C31.043 29.1667 30.5495 30.5048 29.5627 31.5286Z" fill="#2F80ED"/>
</svg>
