<svg width="130" height="39" viewBox="0 0 130 39" fill="none" xmlns="http://www.w3.org/2000/svg">
<path d="M45.9774 23.9593C45.9774 27.1006 43.9676 28.9845 40.9033 28.9845H35.8789V11.3953H40.6514C43.49 11.3953 45.3208 13.2296 45.3208 16.1694C45.3208 17.8782 44.6174 19.2601 43.5376 19.9383C45.0474 20.567 45.9774 22.0491 45.9774 23.9593ZM38.4159 13.7823V18.8329H40.4257C41.9578 18.8329 42.737 17.9571 42.737 16.2444C42.737 14.59 41.9831 13.7823 40.3498 13.7823H38.4159ZM43.3859 23.9593C43.3859 22.1503 42.2555 21.22 40.4675 21.22H38.4159V26.5974H40.5765C42.4355 26.5974 43.3859 25.743 43.3859 23.9593Z" fill="white"/>
<path d="M48.2373 10.792H50.6693V28.9895H48.2373V10.792Z" fill="white"/>
<path d="M62.4055 15.7423V28.9846H60.672L60.421 27.5025C59.7401 28.6333 58.6379 29.3116 57.1301 29.3116C54.8441 29.3116 53.4131 27.6787 53.4131 24.0567V15.7423H55.845V23.939C55.845 26.1003 56.4229 27.0043 57.704 27.0043C59.0864 27.0043 59.9648 25.8988 59.9648 23.939V15.7423H62.4055Z" fill="white"/>
<path d="M74.261 24.839C74.01 27.6533 72.3261 29.2609 69.5128 29.2609C66.7501 29.2609 65.0166 27.4519 65.0166 24.2863V20.3383C65.0166 17.198 66.7754 15.4133 69.5634 15.4133C72.4273 15.4133 74.2104 17.198 74.2104 20.3383V23.2791H67.4534V24.2844C67.4534 26.0934 68.2317 26.9225 69.5634 26.9225C70.9953 26.9225 71.5985 26.2695 71.8008 24.8371L74.261 24.839ZM67.4515 20.3159V21.4467H71.7969V20.3159C71.7969 18.5059 70.9934 17.7021 69.5867 17.7021C68.257 17.7021 67.4534 18.5059 67.4534 20.3159H67.4515Z" fill="white"/>
<path d="M79.2822 23.7579V16.5966C79.2822 13.0282 81.2414 11.1189 84.4312 11.1189C87.5441 11.1189 89.4303 13.0029 89.5558 16.4711H87.047C86.9497 14.4353 86.0421 13.5517 84.4341 13.5517C82.8261 13.5517 81.8728 14.482 81.8728 16.618V23.754C81.8728 25.89 82.8767 26.8203 84.51 26.8203C86.1929 26.8203 87.1978 25.89 87.1978 23.8795V21.6725H84.4098V19.4109H89.6842V23.8873C89.6346 27.3302 87.6501 29.2648 84.4847 29.2648C81.3192 29.2648 79.2822 27.3263 79.2822 23.7579Z" fill="white"/>
<path d="M101.063 15.7423V28.9846H99.3302L99.0792 27.5025C98.3983 28.6333 97.2951 29.3116 95.7883 29.3116C93.5022 29.3116 92.0703 27.6787 92.0703 24.0567V15.7423H94.5023V23.939C94.5023 26.1003 95.0801 27.0043 96.3613 27.0043C97.7426 27.0043 98.622 25.8988 98.622 23.939V15.7423H101.063Z" fill="white"/>
<path d="M103.65 11.9977C103.65 11.0936 104.278 10.4407 105.183 10.4407C106.087 10.4407 106.739 11.0946 106.739 11.9977C106.742 12.2018 106.703 12.4044 106.626 12.5932C106.548 12.782 106.433 12.9532 106.288 13.0965C106.142 13.2398 105.969 13.3521 105.779 13.4269C105.59 13.5016 105.387 13.5371 105.183 13.5313C104.283 13.5313 103.65 12.8774 103.65 11.9977ZM103.976 15.7423H106.413V28.9846H103.976V15.7423Z" fill="white"/>
<path d="M118.143 10.792V28.9895H116.385L116.209 27.7585C115.556 28.6129 114.425 29.2911 113.22 29.2911C110.733 29.2911 109.025 27.3819 109.025 24.1404V20.4911C109.025 17.3003 110.658 15.4153 113.22 15.4153C113.697 15.4172 114.17 15.5137 114.609 15.6992C115.049 15.8848 115.448 16.1558 115.782 16.4965V10.792H118.143ZM115.782 20.4911C115.782 18.7823 114.954 17.7275 113.622 17.7275C112.215 17.7275 111.482 18.5819 111.482 20.4911V24.1336C111.482 26.0934 112.285 26.9731 113.622 26.9731C114.878 26.9731 115.782 26.0681 115.782 24.1579V20.4911Z" fill="white"/>
<path d="M130 24.839C129.749 27.6533 128.066 29.2609 125.252 29.2609C122.489 29.2609 120.756 27.4519 120.756 24.2863V20.3383C120.756 17.198 122.515 15.4133 125.303 15.4133C128.167 15.4133 129.95 17.198 129.95 20.3383V23.2791H123.193V24.2844C123.193 26.0934 123.971 26.9225 125.303 26.9225C126.735 26.9225 127.338 26.2695 127.54 24.8371L130 24.839ZM123.191 20.3159V21.4467H127.536V20.3159C127.536 18.5059 126.733 17.7021 125.326 17.7021C123.996 17.7021 123.193 18.5059 123.193 20.3159H123.191Z" fill="white"/>
<path d="M21.4168 12.748V14.1716C20.7579 13.5469 20.0938 13.0963 19.4246 12.82C18.7373 12.5399 18.0012 12.399 17.2591 12.4054C15.5192 12.4054 14.0136 13.0801 12.7425 14.4295C12.6277 14.5521 12.5178 14.6767 12.4127 14.8052C12.3096 14.6767 12.2016 14.5502 12.0888 14.4286C10.8566 13.0993 9.365 12.4349 7.61398 12.4356C6.8319 12.4304 6.05711 12.5861 5.33767 12.893C4.59619 13.2204 3.92422 13.6868 3.35805 14.267V7.09507C3.35805 6.85013 3.45512 6.61518 3.62798 6.44171C3.80084 6.26824 4.0354 6.1704 4.28025 6.16962H19.2417V8.97417L22.697 6.16962L24.769 4.48709L22.7097 2.81526L19.2417 0V2.81526H3.35319C2.46387 2.81526 1.61097 3.16866 0.982126 3.79773C0.353281 4.42679 0 5.27999 0 6.16962L0 26.2481H3.35319V24.8245C4.01274 25.4525 4.6765 25.9033 5.34448 26.1771C6.03209 26.4573 6.76844 26.5982 7.51087 26.5917C9.25086 26.5917 10.7561 25.9173 12.0265 24.5685C12.142 24.4459 12.2522 24.3204 12.3573 24.1919C12.4597 24.3217 12.5677 24.4475 12.6812 24.5695C13.9102 25.9007 15.4031 26.5664 17.1599 26.5664C17.9423 26.5714 18.7174 26.4157 19.4372 26.109C20.1784 25.7811 20.8503 25.3147 21.4168 24.7349V31.9069C21.4168 32.1523 21.3194 32.3877 21.1459 32.5613C20.9724 32.7348 20.7371 32.8323 20.4917 32.8323H5.52736V30.0258L2.07203 32.8304L0 34.5129L2.05938 36.1847L5.52736 39V36.1847H21.4168C22.306 36.1845 23.1586 35.831 23.7873 35.2019C24.4159 34.5729 24.769 33.7198 24.769 32.8304V12.748H21.4168ZM9.50897 22.3741C9.18036 22.7363 8.77821 23.0241 8.32945 23.2183C7.88068 23.4124 7.39564 23.5085 6.90677 23.5C5.84254 23.5 4.9599 23.1309 4.25885 22.3926C3.5578 21.6543 3.2063 20.6867 3.20435 19.4898C3.20435 18.322 3.55488 17.3732 4.25593 16.6434C4.95699 15.9135 5.8406 15.5506 6.90677 15.5545C7.96192 15.5545 8.83742 15.9236 9.53329 16.6619C10.2292 17.4002 10.5755 18.347 10.5722 19.5024C10.5683 20.6663 10.2139 21.6235 9.50897 22.3741ZM20.5131 22.3566C19.8121 23.0826 18.9294 23.4455 17.8652 23.4455C16.801 23.4455 15.9255 23.0764 15.2387 22.3381C14.548 21.5998 14.2027 20.653 14.2027 19.4976C14.2027 18.3421 14.5555 17.3849 15.261 16.6259C15.5899 16.2634 15.9923 15.9755 16.4415 15.7813C16.8906 15.5871 17.376 15.4912 17.8652 15.5C18.9294 15.5 19.8121 15.8691 20.5131 16.6074C21.2142 17.3457 21.5647 18.3133 21.5647 19.5102C21.5647 20.6819 21.2142 21.6307 20.5131 22.3566Z" fill="white"/>
</svg>
