<svg width="151" height="49" viewBox="0 0 151 49" fill="none" xmlns="http://www.w3.org/2000/svg">
<path d="M66.9774 33.9593C66.9774 37.1006 64.9676 38.9845 61.9033 38.9845H56.8789V21.3953H61.6514C64.49 21.3953 66.3208 23.2296 66.3208 26.1694C66.3208 27.8782 65.6174 29.2601 64.5376 29.9383C66.0474 30.567 66.9774 32.0491 66.9774 33.9593ZM59.4159 23.7823V28.8329H61.4257C62.9578 28.8329 63.737 27.9571 63.737 26.2444C63.737 24.59 62.9831 23.7823 61.3498 23.7823H59.4159ZM64.3859 33.9593C64.3859 32.1503 63.2555 31.22 61.4675 31.22H59.4159V36.5974H61.5765C63.4355 36.5974 64.3859 35.743 64.3859 33.9593Z" fill="white"/>
<path d="M69.2373 20.792H71.6693V38.9895H69.2373V20.792Z" fill="white"/>
<path d="M83.4055 25.7423V38.9846H81.672L81.421 37.5025C80.7401 38.6333 79.6379 39.3116 78.1301 39.3116C75.8441 39.3116 74.4131 37.6787 74.4131 34.0567V25.7423H76.845V33.939C76.845 36.1003 77.4229 37.0043 78.704 37.0043C80.0864 37.0043 80.9648 35.8988 80.9648 33.939V25.7423H83.4055Z" fill="white"/>
<path d="M95.261 34.839C95.01 37.6533 93.3261 39.2609 90.5128 39.2609C87.7501 39.2609 86.0166 37.4519 86.0166 34.2863V30.3383C86.0166 27.198 87.7754 25.4133 90.5634 25.4133C93.4273 25.4133 95.2104 27.198 95.2104 30.3383V33.2791H88.4534V34.2844C88.4534 36.0934 89.2317 36.9225 90.5634 36.9225C91.9953 36.9225 92.5985 36.2695 92.8008 34.8371L95.261 34.839ZM88.4515 30.3159V31.4467H92.7969V30.3159C92.7969 28.5059 91.9934 27.7021 90.5867 27.7021C89.257 27.7021 88.4534 28.5059 88.4534 30.3159H88.4515Z" fill="white"/>
<path d="M100.282 33.7579V26.5966C100.282 23.0282 102.241 21.1189 105.431 21.1189C108.544 21.1189 110.43 23.0029 110.556 26.4711H108.047C107.95 24.4353 107.042 23.5517 105.434 23.5517C103.826 23.5517 102.873 24.482 102.873 26.618V33.754C102.873 35.89 103.877 36.8203 105.51 36.8203C107.193 36.8203 108.198 35.89 108.198 33.8795V31.6725H105.41V29.4109H110.684V33.8873C110.635 37.3302 108.65 39.2648 105.485 39.2648C102.319 39.2648 100.282 37.3263 100.282 33.7579Z" fill="white"/>
<path d="M122.063 25.7423V38.9846H120.33L120.079 37.5025C119.398 38.6333 118.295 39.3116 116.788 39.3116C114.502 39.3116 113.07 37.6787 113.07 34.0567V25.7423H115.502V33.939C115.502 36.1003 116.08 37.0043 117.361 37.0043C118.743 37.0043 119.622 35.8988 119.622 33.939V25.7423H122.063Z" fill="white"/>
<path d="M124.65 21.9977C124.65 21.0936 125.278 20.4407 126.183 20.4407C127.087 20.4407 127.739 21.0946 127.739 21.9977C127.742 22.2018 127.703 22.4044 127.626 22.5932C127.548 22.782 127.433 22.9532 127.288 23.0965C127.142 23.2398 126.969 23.3521 126.779 23.4269C126.59 23.5016 126.387 23.5371 126.183 23.5313C125.283 23.5313 124.65 22.8774 124.65 21.9977ZM124.976 25.7423H127.413V38.9846H124.976V25.7423Z" fill="white"/>
<path d="M139.143 20.792V38.9895H137.385L137.209 37.7585C136.556 38.6129 135.425 39.2911 134.22 39.2911C131.733 39.2911 130.025 37.3819 130.025 34.1404V30.4911C130.025 27.3003 131.658 25.4153 134.22 25.4153C134.697 25.4172 135.17 25.5137 135.609 25.6992C136.049 25.8848 136.448 26.1558 136.782 26.4965V20.792H139.143ZM136.782 30.4911C136.782 28.7823 135.954 27.7275 134.622 27.7275C133.215 27.7275 132.482 28.5819 132.482 30.4911V34.1336C132.482 36.0934 133.285 36.9731 134.622 36.9731C135.878 36.9731 136.782 36.0681 136.782 34.1579V30.4911Z" fill="white"/>
<path d="M151 34.839C150.749 37.6533 149.066 39.2609 146.252 39.2609C143.489 39.2609 141.756 37.4519 141.756 34.2863V30.3383C141.756 27.198 143.515 25.4133 146.303 25.4133C149.167 25.4133 150.95 27.198 150.95 30.3383V33.2791H144.193V34.2844C144.193 36.0934 144.971 36.9225 146.303 36.9225C147.735 36.9225 148.338 36.2695 148.54 34.8371L151 34.839ZM144.191 30.3159V31.4467H148.536V30.3159C148.536 28.5059 147.733 27.7021 146.326 27.7021C144.996 27.7021 144.193 28.5059 144.193 30.3159H144.191Z" fill="white"/>
<path d="M42.4168 22.748V24.1716C41.7579 23.5469 41.0938 23.0963 40.4246 22.82C39.7373 22.5399 39.0012 22.399 38.2591 22.4054C36.5192 22.4054 35.0136 23.0801 33.7425 24.4295C33.6277 24.5521 33.5178 24.6767 33.4127 24.8052C33.3096 24.6767 33.2016 24.5502 33.0888 24.4286C31.8566 23.0993 30.365 22.4349 28.614 22.4356C27.8319 22.4304 27.0571 22.5861 26.3377 22.893C25.5962 23.2204 24.9242 23.6868 24.3581 24.267V17.0951C24.3581 16.8501 24.4551 16.6152 24.628 16.4417C24.8008 16.2682 25.0354 16.1704 25.2803 16.1696H40.2417V18.9742L43.697 16.1696L45.769 14.4871L43.7097 12.8153L40.2417 10V12.8153H24.3532C23.4639 12.8153 22.611 13.1687 21.9821 13.7977C21.3533 14.4268 21 15.28 21 16.1696V36.2481H24.3532V34.8245C25.0127 35.4525 25.6765 35.9033 26.3445 36.1771C27.0321 36.4573 27.7684 36.5982 28.5109 36.5917C30.2509 36.5917 31.7561 35.9173 33.0265 34.5685C33.142 34.4459 33.2522 34.3204 33.3573 34.1919C33.4597 34.3217 33.5677 34.4475 33.6812 34.5695C34.9102 35.9007 36.4031 36.5664 38.1599 36.5664C38.9423 36.5714 39.7174 36.4157 40.4372 36.109C41.1784 35.7811 41.8503 35.3147 42.4168 34.7349V41.9069C42.4168 42.1523 42.3194 42.3877 42.1459 42.5613C41.9724 42.7348 41.7371 42.8323 41.4917 42.8323H26.5274V40.0258L23.072 42.8304L21 44.5129L23.0594 46.1847L26.5274 49V46.1847H42.4168C43.306 46.1845 44.1586 45.831 44.7873 45.2019C45.4159 44.5729 45.769 43.7198 45.769 42.8304V22.748H42.4168ZM30.509 32.3741C30.1804 32.7363 29.7782 33.0241 29.3294 33.2183C28.8807 33.4124 28.3956 33.5085 27.9068 33.5C26.8425 33.5 25.9599 33.1309 25.2589 32.3926C24.5578 31.6543 24.2063 30.6867 24.2044 29.4898C24.2044 28.322 24.5549 27.3732 25.2559 26.6434C25.957 25.9135 26.8406 25.5506 27.9068 25.5545C28.9619 25.5545 29.8374 25.9236 30.5333 26.6619C31.2292 27.4002 31.5755 28.347 31.5722 29.5024C31.5683 30.6663 31.2139 31.6235 30.509 32.3741ZM41.5131 32.3566C40.8121 33.0826 39.9294 33.4455 38.8652 33.4455C37.801 33.4455 36.9255 33.0764 36.2387 32.3381C35.548 31.5998 35.2027 30.653 35.2027 29.4976C35.2027 28.3421 35.5555 27.3849 36.261 26.6259C36.5899 26.2634 36.9923 25.9755 37.4415 25.7813C37.8906 25.5871 38.376 25.4912 38.8652 25.5C39.9294 25.5 40.8121 25.8691 41.5131 26.6074C42.2142 27.3457 42.5647 28.3133 42.5647 29.5102C42.5647 30.6819 42.2142 31.6307 41.5131 32.3566Z" fill="white"/>
<path d="M66.9774 33.9593C66.9774 37.1006 64.9676 38.9845 61.9033 38.9845H56.8789V21.3953H61.6514C64.49 21.3953 66.3208 23.2296 66.3208 26.1694C66.3208 27.8782 65.6174 29.2601 64.5376 29.9383C66.0474 30.567 66.9774 32.0491 66.9774 33.9593ZM59.4159 23.7823V28.8329H61.4257C62.9578 28.8329 63.737 27.9571 63.737 26.2444C63.737 24.59 62.9831 23.7823 61.3498 23.7823H59.4159ZM64.3859 33.9593C64.3859 32.1503 63.2555 31.22 61.4675 31.22H59.4159V36.5974H61.5765C63.4355 36.5974 64.3859 35.743 64.3859 33.9593Z" fill="#242424"/>
<path d="M69.2373 20.792H71.6693V38.9895H69.2373V20.792Z" fill="#242424"/>
<path d="M83.4055 25.7423V38.9846H81.672L81.421 37.5025C80.7401 38.6333 79.6379 39.3116 78.1301 39.3116C75.8441 39.3116 74.4131 37.6787 74.4131 34.0567V25.7423H76.845V33.939C76.845 36.1003 77.4229 37.0043 78.704 37.0043C80.0864 37.0043 80.9648 35.8988 80.9648 33.939V25.7423H83.4055Z" fill="#242424"/>
<path d="M95.261 34.839C95.01 37.6533 93.3261 39.2609 90.5128 39.2609C87.7501 39.2609 86.0166 37.4519 86.0166 34.2863V30.3383C86.0166 27.198 87.7754 25.4133 90.5634 25.4133C93.4273 25.4133 95.2104 27.198 95.2104 30.3383V33.2791H88.4534V34.2844C88.4534 36.0934 89.2317 36.9225 90.5634 36.9225C91.9953 36.9225 92.5985 36.2695 92.8008 34.8371L95.261 34.839ZM88.4515 30.3159V31.4467H92.7969V30.3159C92.7969 28.5059 91.9934 27.7021 90.5867 27.7021C89.257 27.7021 88.4534 28.5059 88.4534 30.3159H88.4515Z" fill="#242424"/>
<path d="M100.282 33.7579V26.5966C100.282 23.0282 102.241 21.1189 105.431 21.1189C108.544 21.1189 110.43 23.0029 110.556 26.4711H108.047C107.95 24.4353 107.042 23.5517 105.434 23.5517C103.826 23.5517 102.873 24.482 102.873 26.618V33.754C102.873 35.89 103.877 36.8203 105.51 36.8203C107.193 36.8203 108.198 35.89 108.198 33.8795V31.6725H105.41V29.4109H110.684V33.8873C110.635 37.3302 108.65 39.2648 105.485 39.2648C102.319 39.2648 100.282 37.3263 100.282 33.7579Z" fill="#242424"/>
<path d="M122.063 25.7423V38.9846H120.33L120.079 37.5025C119.398 38.6333 118.295 39.3116 116.788 39.3116C114.502 39.3116 113.07 37.6787 113.07 34.0567V25.7423H115.502V33.939C115.502 36.1003 116.08 37.0043 117.361 37.0043C118.743 37.0043 119.622 35.8988 119.622 33.939V25.7423H122.063Z" fill="#242424"/>
<path d="M124.65 21.9977C124.65 21.0936 125.278 20.4407 126.183 20.4407C127.087 20.4407 127.739 21.0946 127.739 21.9977C127.742 22.2018 127.703 22.4044 127.626 22.5932C127.548 22.782 127.433 22.9532 127.288 23.0965C127.142 23.2398 126.969 23.3521 126.779 23.4269C126.59 23.5016 126.387 23.5371 126.183 23.5313C125.283 23.5313 124.65 22.8774 124.65 21.9977ZM124.976 25.7423H127.413V38.9846H124.976V25.7423Z" fill="#242424"/>
<path d="M139.143 20.792V38.9895H137.385L137.209 37.7585C136.556 38.6129 135.425 39.2911 134.22 39.2911C131.733 39.2911 130.025 37.3819 130.025 34.1404V30.4911C130.025 27.3003 131.658 25.4153 134.22 25.4153C134.697 25.4172 135.17 25.5137 135.609 25.6992C136.049 25.8848 136.448 26.1558 136.782 26.4965V20.792H139.143ZM136.782 30.4911C136.782 28.7823 135.954 27.7275 134.622 27.7275C133.215 27.7275 132.482 28.5819 132.482 30.4911V34.1336C132.482 36.0934 133.285 36.9731 134.622 36.9731C135.878 36.9731 136.782 36.0681 136.782 34.1579V30.4911Z" fill="#242424"/>
<path d="M151 34.839C150.749 37.6533 149.066 39.2609 146.252 39.2609C143.489 39.2609 141.756 37.4519 141.756 34.2863V30.3383C141.756 27.198 143.515 25.4133 146.303 25.4133C149.167 25.4133 150.95 27.198 150.95 30.3383V33.2791H144.193V34.2844C144.193 36.0934 144.971 36.9225 146.303 36.9225C147.735 36.9225 148.338 36.2695 148.54 34.8371L151 34.839ZM144.191 30.3159V31.4467H148.536V30.3159C148.536 28.5059 147.733 27.7021 146.326 27.7021C144.996 27.7021 144.193 28.5059 144.193 30.3159H144.191Z" fill="#242424"/>
<path d="M42.4168 22.748V24.1716C41.7579 23.5469 41.0938 23.0963 40.4246 22.82C39.7373 22.5399 39.0012 22.399 38.2591 22.4054C36.5192 22.4054 35.0136 23.0801 33.7425 24.4295C33.6277 24.5521 33.5178 24.6767 33.4127 24.8052C33.3096 24.6767 33.2016 24.5502 33.0888 24.4286C31.8566 23.0993 30.365 22.4349 28.614 22.4356C27.8319 22.4304 27.0571 22.5861 26.3377 22.893C25.5962 23.2204 24.9242 23.6868 24.3581 24.267V17.0951C24.3581 16.8501 24.4551 16.6152 24.628 16.4417C24.8008 16.2682 25.0354 16.1704 25.2803 16.1696H40.2417V18.9742L43.697 16.1696L45.769 14.4871L43.7097 12.8153L40.2417 10V12.8153H24.3532C23.4639 12.8153 22.611 13.1687 21.9821 13.7977C21.3533 14.4268 21 15.28 21 16.1696V36.2481H24.3532V34.8245C25.0127 35.4525 25.6765 35.9033 26.3445 36.1771C27.0321 36.4573 27.7684 36.5982 28.5109 36.5917C30.2509 36.5917 31.7561 35.9173 33.0265 34.5685C33.142 34.4459 33.2522 34.3204 33.3573 34.1919C33.4597 34.3217 33.5677 34.4475 33.6812 34.5695C34.9102 35.9007 36.4031 36.5664 38.1599 36.5664C38.9423 36.5714 39.7174 36.4157 40.4372 36.109C41.1784 35.7811 41.8503 35.3147 42.4168 34.7349V41.9069C42.4168 42.1523 42.3194 42.3877 42.1459 42.5613C41.9724 42.7348 41.7371 42.8323 41.4917 42.8323H26.5274V40.0258L23.072 42.8304L21 44.5129L23.0594 46.1847L26.5274 49V46.1847H42.4168C43.306 46.1845 44.1586 45.831 44.7873 45.2019C45.4159 44.5729 45.769 43.7198 45.769 42.8304V22.748H42.4168ZM30.509 32.3741C30.1804 32.7363 29.7782 33.0241 29.3294 33.2183C28.8807 33.4124 28.3956 33.5085 27.9068 33.5C26.8425 33.5 25.9599 33.1309 25.2589 32.3926C24.5578 31.6543 24.2063 30.6867 24.2044 29.4898C24.2044 28.322 24.5549 27.3732 25.2559 26.6434C25.957 25.9135 26.8406 25.5506 27.9068 25.5545C28.9619 25.5545 29.8374 25.9236 30.5333 26.6619C31.2292 27.4002 31.5755 28.347 31.5722 29.5024C31.5683 30.6663 31.2139 31.6235 30.509 32.3741ZM41.5131 32.3566C40.8121 33.0826 39.9294 33.4455 38.8652 33.4455C37.801 33.4455 36.9255 33.0764 36.2387 32.3381C35.548 31.5998 35.2027 30.653 35.2027 29.4976C35.2027 28.3421 35.5555 27.3849 36.261 26.6259C36.5899 26.2634 36.9923 25.9755 37.4415 25.7813C37.8906 25.5871 38.376 25.4912 38.8652 25.5C39.9294 25.5 40.8121 25.8691 41.5131 26.6074C42.2142 27.3457 42.5647 28.3133 42.5647 29.5102C42.5647 30.6819 42.2142 31.6307 41.5131 32.3566Z" fill="#2F80ED"/>
</svg>
