<svg width="73" height="87" viewBox="0 0 73 87" fill="none" xmlns="http://www.w3.org/2000/svg">
<g clip-path="url(#clip0_24_274)">
<path d="M0.807743 0.828897C1.90296 -0.276299 3.67867 -0.276299 4.77389 0.828897L8.5132 4.60227C9.60842 5.70747 9.60842 7.49934 8.5132 8.60454C7.41798 9.70973 5.64228 9.70973 4.54706 8.60454L0.807743 4.83116C-0.287477 3.72597 -0.287477 1.93409 0.807743 0.828897Z" fill="#2F80ED"/>
<path d="M72.0816 0.828897C73.1768 1.93409 73.1768 3.72597 72.0816 4.83116L68.3423 8.60454C67.247 9.70973 65.4713 9.70973 64.3761 8.60454C63.2809 7.49934 63.2809 5.70747 64.3761 4.60227L68.1154 0.828897C69.2107 -0.276299 70.9864 -0.276299 72.0816 0.828897Z" fill="#2F80ED"/>
<path d="M68.3423 49.8828C67.247 48.7776 65.4713 48.7776 64.3761 49.8828C63.2809 50.9879 63.2809 52.7798 64.3761 53.885L68.1154 57.6584C69.2107 58.7636 70.9864 58.7636 72.0816 57.6584C73.1768 56.5532 73.1768 54.7613 72.0816 53.6561L68.3423 49.8828Z" fill="#2F80ED"/>
<path d="M8.5132 49.8828C9.60842 50.9879 9.60842 52.7798 8.5132 53.885L4.77389 57.6584C3.67867 58.7636 1.90296 58.7636 0.807743 57.6584C-0.287477 56.5532 -0.287477 54.7613 0.807743 53.6561L4.54706 49.8828C5.64228 48.7776 7.41798 48.7776 8.5132 49.8828Z" fill="#2F80ED"/>
<path d="M25.2267 60.374C23.6778 60.374 22.4222 61.641 22.4222 63.204C22.4222 64.767 23.6778 66.034 25.2267 66.034H47.6626C49.2115 66.034 50.4671 64.767 50.4671 63.204C50.4671 61.641 49.2115 60.374 47.6626 60.374H25.2267Z" fill="#2F80ED"/>
<path d="M26.1615 74.5241C26.1615 72.9612 27.4172 71.6941 28.966 71.6941H43.9233C45.4722 71.6941 46.7278 72.9612 46.7278 74.5241C46.7278 76.0871 45.4722 77.3542 43.9233 77.3542H28.966C27.4172 77.3542 26.1615 76.0871 26.1615 74.5241Z" fill="#2F80ED"/>
<path fill-rule="evenodd" clip-rule="evenodd" d="M36.4439 3.77337C28.5479 3.77337 22.1526 5.71365 17.7166 9.57961C13.2167 13.5012 11.1037 19.0811 11.2041 25.5148C11.3037 31.9093 13.4144 36.4207 17.6342 40.6784C19.5744 42.6359 20.6214 43.7293 21.3159 45.1311C21.9765 46.4644 22.4219 48.3261 22.4217 51.8837C22.4216 52.6343 22.7171 53.3542 23.243 53.8849C23.7689 54.4157 24.4823 54.7139 25.2261 54.7139H47.6619C49.2106 54.7139 50.4662 53.447 50.4663 51.8842C50.4667 48.3268 50.9123 46.4648 51.573 45.1312C52.2677 43.7293 53.3144 42.6357 55.2536 40.6785C59.4718 36.4214 61.5846 31.9098 61.6839 25.5148C61.7843 19.0812 59.6713 13.5012 55.1715 9.57961C50.7354 5.71365 44.3401 3.77337 36.4439 3.77337ZM16.8123 25.4258C16.7332 20.3517 18.3592 16.4982 21.3827 13.8633C24.47 11.1727 29.3823 9.43343 36.4439 9.43343C43.5057 9.43343 48.4181 11.1727 51.5054 13.8633C54.5288 16.4982 56.1548 20.3517 56.0757 25.4257C56.0007 30.2517 54.5469 33.3868 51.2873 36.6764L51.1286 36.8366C49.3854 38.5949 47.6965 40.2985 46.5562 42.6001C45.6542 44.4207 45.1526 46.4723 44.956 49.0539H27.9325C27.7362 46.4723 27.2349 44.4206 26.3327 42.5998C25.1921 40.2979 23.5026 38.5942 21.7585 36.8356L21.6001 36.6758C18.3402 33.3867 16.8876 30.2524 16.8123 25.4258Z" fill="#2F80ED"/>
</g>
<defs>
<clipPath id="clip0_24_274">
<rect width="73" height="87" fill="white"/>
</clipPath>
</defs>
</svg>
