<svg width="81" height="80" viewBox="0 0 81 80" fill="none" xmlns="http://www.w3.org/2000/svg">
<path d="M9.44222 25.6892C8.79719 24.247 7.11227 23.6039 5.67886 24.2529C4.24545 24.9019 3.60635 26.5972 4.25138 28.0394C7.53943 35.3911 12.3095 41.0948 17.897 45.1505L10.239 55.7226C9.31315 57.0007 9.5924 58.7919 10.8627 59.7234C12.133 60.6549 13.9132 60.3739 14.8391 59.0959L22.7576 48.1642C27.5945 50.6944 32.843 52.1511 38.1539 52.5341V63.1364C38.1539 64.7179 39.4281 66 41 66C42.5719 66 43.8461 64.7179 43.8461 63.1364V52.5341C49.157 52.1511 54.4055 50.6944 59.2424 48.1641L67.1609 59.0959C68.0867 60.3739 69.867 60.6549 71.1373 59.7234C72.4076 58.7919 72.6868 57.0007 71.761 55.7226L64.103 45.1505C69.6906 41.0948 74.4606 35.3911 77.7486 28.0394C78.3937 26.5972 77.7545 24.9019 76.3211 24.2529C74.8877 23.6039 73.2028 24.247 72.5578 25.6892C59.9034 53.9828 22.0966 53.9828 9.44222 25.6892Z" fill="#2F80ED"/>
</svg>
