<svg width="123" height="92" viewBox="0 0 123 92" fill="none" xmlns="http://www.w3.org/2000/svg">
<path d="M61.5 6.17111L20.5947 25.8194C19.0266 26.5726 17.1199 25.962 16.3358 24.4556C15.5518 22.9492 16.1874 21.1174 17.7554 20.3642L58.9448 0.579497C60.5532 -0.19307 62.4465 -0.19326 64.0552 0.579496L105.245 20.3642C106.813 21.1174 107.448 22.9492 106.664 24.4556C105.88 25.962 103.973 26.5726 102.405 25.8194L61.5 6.17111Z" fill="#2F80ED"/>
<path d="M61.5 46.4716C58.5779 46.4716 56.2094 48.747 56.2094 51.5542V63.7523C56.2094 65.4365 54.7882 66.8018 53.035 66.8018C51.2819 66.8018 49.8606 65.4365 49.8606 63.7523V51.5542C49.8606 45.3786 55.0716 40.3725 61.5 40.3725C67.9284 40.3725 73.1394 45.3786 73.1394 51.5542V63.7523C73.1394 65.4365 71.7181 66.8018 69.965 66.8018C68.2118 66.8018 66.7906 65.4365 66.7906 63.7523V51.5542C66.7906 48.747 64.4221 46.4716 61.5 46.4716Z" fill="#2F80ED"/>
<path d="M30.8144 35.29C30.8144 33.6058 29.3932 32.2404 27.6401 32.2404C25.8869 32.2404 24.4657 33.6058 24.4657 35.29V67.8184C24.4657 73.994 29.6768 79 36.105 79H86.895C93.3233 79 98.5343 73.9939 98.5343 67.8184V35.29C98.5343 33.6058 97.1131 32.2404 95.3599 32.2404C93.6068 32.2404 92.1856 33.6058 92.1856 35.29V67.8184C92.1856 70.6255 89.817 72.9009 86.895 72.9009H36.105C33.1831 72.9009 30.8144 70.6255 30.8144 67.8184V35.29Z" fill="#2F80ED"/>
</svg>
